
<svg width="512" height="512" viewBox="0 0 512 512" fill="none" xmlns="http://www.w3.org/2000/svg">
  <!-- Background gradient -->
  <rect width="512" height="512" rx="100" fill="url(#paint0_linear)" />
  
  <!-- Circuit board pattern -->
  <path d="M128 128H384M128 256H384M128 384H384M256 128V384" stroke="white" stroke-opacity="0.1" stroke-width="8" />
  <circle cx="256" cy="256" r="24" fill="white" fill-opacity="0.1" />
  <circle cx="256" cy="128" r="16" fill="white" fill-opacity="0.1" />
  <circle cx="256" cy="384" r="16" fill="white" fill-opacity="0.1" />
  <circle cx="128" cy="256" r="16" fill="white" fill-opacity="0.1" />
  <circle cx="384" cy="256" r="16" fill="white" fill-opacity="0.1" />
  
  <!-- Smiling face -->
  <circle cx="256" cy="256" r="128" fill="#FBBF24" />
  <path d="M196 220C203 220 208 214 208 207C208 200 203 194 196 194C189 194 184 200 184 207C184 214 189 220 196 220Z" fill="#B91C1C" />
  <path d="M316 220C323 220 328 214 328 207C328 200 323 194 316 194C309 194 304 200 304 207C304 214 309 220 316 220Z" fill="#B91C1C" />
  <path d="M196 296C228 328 284 328 316 296" stroke="#B91C1C" stroke-width="12" stroke-linecap="round" />
  
  <!-- Define the gradient for the background -->
  <defs>
    <linearGradient id="paint0_linear" x1="0" y1="0" x2="512" y2="512" gradientUnits="userSpaceOnUse">
      <stop stop-color="#F97316" />
      <stop offset="1" stop-color="#B91C1C" />
    </linearGradient>
  </defs>
</svg>
