
<svg width="512" height="512" viewBox="0 0 512 512" fill="none" xmlns="http://www.w3.org/2000/svg">
  <!-- Background gradient -->
  <rect width="512" height="512" rx="100" fill="url(#paint0_linear)" />
  
  <!-- Circuit board pattern -->
  <path d="M128 128H384M128 256H384M128 384H384M256 128V384" stroke="white" stroke-opacity="0.1" stroke-width="8" />
  <circle cx="256" cy="256" r="24" fill="white" fill-opacity="0.1" />
  <circle cx="256" cy="128" r="16" fill="white" fill-opacity="0.1" />
  <circle cx="256" cy="384" r="16" fill="white" fill-opacity="0.1" />
  <circle cx="128" cy="256" r="16" fill="white" fill-opacity="0.1" />
  <circle cx="384" cy="256" r="16" fill="white" fill-opacity="0.1" />
  
  <!-- Car silhouette -->
  <path d="M320 280C320 293.25 309.25 304 296 304H216C202.75 304 192 293.25 192 280V256H320V280Z" fill="white" />
  <path d="M336 240H176L192 200H320L336 240Z" fill="white" />
  <circle cx="208" cy="280" r="16" fill="#F97316" />
  <circle cx="304" cy="280" r="16" fill="#F97316" />
  
  <!-- Water droplets -->
  <path d="M368 216C368 229.25 357.25 240 344 240C330.75 240 320 229.25 320 216C320 192 344 168 344 168C344 168 368 192 368 216Z" fill="#38BDF8" />
  <path d="M192 216C192 229.25 181.25 240 168 240C154.75 240 144 229.25 144 216C144 192 168 168 168 168C168 168 192 192 192 216Z" fill="#38BDF8" />
  
  <!-- Robot elements with smiling face -->
  <rect x="232" y="184" width="48" height="24" rx="4" fill="#0F172A" />
  
  <!-- Smiling face -->
  <circle cx="256" cy="220" r="32" fill="#FBBF24" />
  <path d="M240 215C243.314 215 246 212.314 246 209C246 205.686 243.314 203 240 203C236.686 203 234 205.686 234 209C234 212.314 236.686 215 240 215Z" fill="#0F172A" />
  <path d="M272 215C275.314 215 278 212.314 278 209C278 205.686 275.314 203 272 203C268.686 203 266 205.686 266 209C266 212.314 268.686 215 272 215Z" fill="#0F172A" />
  <path d="M240 230C248 238 264 238 272 230" stroke="#0F172A" stroke-width="4" stroke-linecap="round" />
  
  <!-- Define the gradient for the background -->
  <defs>
    <linearGradient id="paint0_linear" x1="0" y1="0" x2="512" y2="512" gradientUnits="userSpaceOnUse">
      <stop stop-color="#F97316" />
      <stop offset="1" stop-color="#B91C1C" />
    </linearGradient>
  </defs>
</svg>
